<svg width="14" height="13" viewBox="0 0 14 13" fill="none" xmlns="http://www.w3.org/2000/svg">
<path d="M0 2.5H8V3.5H0V2.5Z" fill="#5E7AAC"/>
<path d="M0 9.5H3V10.5H0V9.5Z" fill="#5E7AAC"/>
<path d="M11 2.5H14V3.5H11V2.5Z" fill="#5E7AAC"/>
<path d="M6 9.5H14V10.5H6V9.5Z" fill="#5E7AAC"/>
<path fill-rule="evenodd" clip-rule="evenodd" d="M9.5 4.5C10.3284 4.5 11 3.82843 11 3C11 2.17157 10.3284 1.5 9.5 1.5C8.67157 1.5 8 2.17157 8 3C8 3.82843 8.67157 4.5 9.5 4.5ZM9.5 5.5C10.8807 5.5 12 4.38071 12 3C12 1.61929 10.8807 0.5 9.5 0.5C8.11929 0.5 7 1.61929 7 3C7 4.38071 8.11929 5.5 9.5 5.5Z" fill="#5E7AAC"/>
<path fill-rule="evenodd" clip-rule="evenodd" d="M4.5 11.5C5.32843 11.5 6 10.8284 6 10C6 9.17157 5.32843 8.5 4.5 8.5C3.67157 8.5 3 9.17157 3 10C3 10.8284 3.67157 11.5 4.5 11.5ZM4.5 12.5C5.88071 12.5 7 11.3807 7 10C7 8.61929 5.88071 7.5 4.5 7.5C3.11929 7.5 2 8.61929 2 10C2 11.3807 3.11929 12.5 4.5 12.5Z" fill="#5E7AAC"/>
</svg>
